<svg width="20" height="21" viewBox="0 0 20 21" fill="none" xmlns="http://www.w3.org/2000/svg">
<g id="Frame">
<path id="Vector" d="M7.50008 2.99982H3.33341C2.87317 2.99982 2.50008 3.37291 2.50008 3.83315V7.99982C2.50008 8.46005 2.87317 8.83315 3.33341 8.83315H7.50008C7.96031 8.83315 8.33341 8.46005 8.33341 7.99982V3.83315C8.33341 3.37291 7.96031 2.99982 7.50008 2.99982Z" stroke="#E7515C" stroke-width="1.66667" stroke-linecap="round" stroke-linejoin="round"/>
<path id="Vector_2" d="M16.667 3H12.5003C12.0401 3 11.667 3.3731 11.667 3.83333V8C11.667 8.46024 12.0401 8.83333 12.5003 8.83333H16.667C17.1272 8.83333 17.5003 8.46024 17.5003 8V3.83333C17.5003 3.3731 17.1272 3 16.667 3Z" stroke="#E7515C" stroke-width="1.66667" stroke-linecap="round" stroke-linejoin="round"/>
<path id="Vector_3" d="M16.667 12.1665H12.5003C12.0401 12.1665 11.667 12.5396 11.667 12.9998V17.1665C11.667 17.6267 12.0401 17.9998 12.5003 17.9998H16.667C17.1272 17.9998 17.5003 17.6267 17.5003 17.1665V12.9998C17.5003 12.5396 17.1272 12.1665 16.667 12.1665Z" stroke="#E7515C" stroke-width="1.66667" stroke-linecap="round" stroke-linejoin="round"/>
<path id="Vector_4" d="M7.50008 12.1665H3.33341C2.87317 12.1665 2.50008 12.5396 2.50008 12.9998V17.1665C2.50008 17.6267 2.87317 17.9998 3.33341 17.9998H7.50008C7.96031 17.9998 8.33341 17.6267 8.33341 17.1665V12.9998C8.33341 12.5396 7.96031 12.1665 7.50008 12.1665Z" stroke="#E7515C" stroke-width="1.66667" stroke-linecap="round" stroke-linejoin="round"/>
</g>
</svg>
