<svg width="26" height="25" viewBox="0 0 26 25" fill="none" xmlns="http://www.w3.org/2000/svg">
<g id="Group">
<path id="Vector" fill-rule="evenodd" clip-rule="evenodd" d="M22.9523 11.6246H19.8093C18.148 11.6246 16.9148 12.8601 16.9148 14.2496C16.9148 15.6391 18.148 16.8746 19.8082 16.8746H22.9792C23.2195 16.8594 23.3233 16.6973 23.3315 16.5993V11.8999C23.3233 11.8019 23.2195 11.6398 22.9792 11.6258H22.9512L22.9523 11.6246ZM22.866 9.8746C22.943 9.8746 23.0177 9.8746 23.0877 9.87927C24.1027 9.9411 25.0022 10.7076 25.078 11.7786C25.0827 11.8486 25.0827 11.9244 25.0827 11.9944V16.5048C25.0827 16.5748 25.0827 16.6506 25.078 16.7206C25.0022 17.7916 24.1027 18.5581 23.0865 18.6211C23.0177 18.6246 22.943 18.6246 22.8649 18.6246H19.8105C17.308 18.6246 15.166 16.7253 15.166 14.2496C15.166 11.7739 17.308 9.8746 19.8093 9.8746H22.866Z" fill="#E7515C"/>
<path id="Vector_2" d="M20.7084 14.2501C20.7084 14.5595 20.5855 14.8562 20.3667 15.075C20.1479 15.2938 19.8512 15.4167 19.5417 15.4167C19.2323 15.4167 18.9356 15.2938 18.7168 15.075C18.498 14.8562 18.3751 14.5595 18.3751 14.2501C18.3751 13.9407 18.498 13.6439 18.7168 13.4251C18.9356 13.2063 19.2323 13.0834 19.5417 13.0834C19.8512 13.0834 20.1479 13.2063 20.3667 13.4251C20.5855 13.6439 20.7084 13.9407 20.7084 14.2501Z" fill="#141218"/>
<path id="Vector_3" fill-rule="evenodd" clip-rule="evenodd" d="M22.8667 9.87507C23.2014 9.86242 23.5345 9.92626 23.8408 10.0617C23.716 8.18807 23.3718 6.74373 22.2938 5.66457C21.42 4.7919 20.3128 4.40457 18.9455 4.22023L18.8965 4.2144C18.8843 4.20514 18.8718 4.1962 18.8592 4.18757L14.5005 1.29773C13.7444 0.804323 12.8611 0.541595 11.9583 0.541595C11.0555 0.541595 10.1722 0.804323 9.41617 1.29773L5.05867 4.18757C5.0456 4.19618 5.03276 4.20512 5.02017 4.2144L4.97117 4.22023C3.60383 4.40457 2.49667 4.7919 1.62283 5.66457C0.750167 6.5384 0.362833 7.64557 0.1785 9.0129C0 10.3429 0 12.0404 0 14.1847V14.3154C0 16.4597 0 18.1584 0.1785 19.4872C0.362833 20.8546 0.750167 21.9617 1.62283 22.8356C2.49667 23.7082 3.60383 24.0956 4.97117 24.2799C6.30117 24.4584 7.99867 24.4584 10.143 24.4584H13.7737C15.918 24.4584 17.6167 24.4584 18.9455 24.2799C20.3128 24.0956 21.42 23.7082 22.2938 22.8356C23.3718 21.7564 23.716 20.3121 23.8408 18.4372C23.6052 18.5422 23.3508 18.6052 23.0872 18.6216C23.0183 18.6251 22.9437 18.6251 22.8655 18.6251H22.071C21.938 20.1896 21.6382 21.0167 21.056 21.5977C20.5625 22.0912 19.8858 22.3876 18.7122 22.5451C17.514 22.7061 15.9332 22.7084 13.7083 22.7084H10.2083C7.9835 22.7084 6.40383 22.7061 5.20333 22.5451C4.03083 22.3876 3.35417 22.0912 2.86067 21.5977C2.36717 21.1042 2.07083 20.4276 1.91333 19.2539C1.75233 18.0557 1.75 16.4749 1.75 14.2501C1.75 12.0252 1.75233 10.4456 1.91333 9.24507C2.07083 8.07257 2.36717 7.3959 2.86067 6.9024C3.35417 6.4089 4.03083 6.11257 5.2045 5.95507C6.40383 5.79407 7.9835 5.79173 10.2083 5.79173H13.7083C15.9332 5.79173 17.514 5.79407 18.7133 5.95507C19.8858 6.11257 20.5625 6.4089 21.056 6.9024C21.6382 7.4834 21.938 8.31057 22.071 9.87507H22.8667ZM10.143 4.04173H13.7737C14.3768 4.04173 14.9438 4.04173 15.477 4.04523L13.5333 2.75607C12.6 2.13773 11.3167 2.13773 10.3833 2.75607L8.4385 4.04523C8.97283 4.04173 9.53983 4.04173 10.1418 4.04173H10.143Z" fill="#E7515C"/>
<path id="Vector_4" d="M5.54102 8.70859C5.30895 8.70859 5.08639 8.80078 4.9223 8.96487C4.7582 9.12896 4.66602 9.35152 4.66602 9.58359C4.66602 9.81565 4.7582 10.0382 4.9223 10.2023C5.08639 10.3664 5.30895 10.4586 5.54102 10.4586H10.2077C10.4397 10.4586 10.6623 10.3664 10.8264 10.2023C10.9905 10.0382 11.0827 9.81565 11.0827 9.58359C11.0827 9.35152 10.9905 9.12896 10.8264 8.96487C10.6623 8.80078 10.4397 8.70859 10.2077 8.70859H5.54102Z" fill="#E7515C"/>
<path id="Vector_5" d="M20.7084 14.2501C20.7084 14.5595 20.5855 14.8562 20.3667 15.075C20.1479 15.2938 19.8512 15.4167 19.5417 15.4167C19.2323 15.4167 18.9356 15.2938 18.7168 15.075C18.498 14.8562 18.3751 14.5595 18.3751 14.2501C18.3751 13.9407 18.498 13.6439 18.7168 13.4251C18.9356 13.2063 19.2323 13.0834 19.5417 13.0834C19.8512 13.0834 20.1479 13.2063 20.3667 13.4251C20.5855 13.6439 20.7084 13.9407 20.7084 14.2501Z" fill="#E7515C"/>
</g>
</svg>
